<svg width="26" height="26" viewBox="0 0 26 26" fill="none" xmlns="http://www.w3.org/2000/svg">
<path d="M13 0C5.8175 0 0 5.96465 0 13.3288C0 19.2268 3.72125 24.2085 8.88874 25.9745C9.53874 26.0912 9.78249 25.6913 9.78249 25.3414C9.78249 25.0249 9.76624 23.9752 9.76624 22.8589C6.49999 23.4754 5.65499 22.0425 5.395 21.2928C5.24875 20.9096 4.615 19.7267 4.0625 19.4101C3.6075 19.1602 2.9575 18.5437 4.04625 18.5271C5.07 18.5104 5.80124 19.4934 6.04499 19.8933C7.21499 21.9092 9.08374 21.3428 9.83124 20.9929C9.94499 20.1265 10.2862 19.5434 10.66 19.2102C7.76749 18.8769 4.745 17.7273 4.745 12.6291C4.745 11.1795 5.24875 9.97996 6.07749 9.04694C5.94749 8.71372 5.49249 7.34751 6.20749 5.5148C6.20749 5.5148 7.29624 5.16492 9.78249 6.881C10.8225 6.58111 11.9275 6.43116 13.0325 6.43116C14.1375 6.43116 15.2425 6.58111 16.2825 6.881C18.7688 5.14826 19.8575 5.5148 19.8575 5.5148C20.5725 7.34751 20.1175 8.71372 19.9875 9.04694C20.8163 9.97996 21.32 11.1629 21.32 12.6291C21.32 17.744 18.2813 18.8769 15.3888 19.2102C15.86 19.6267 16.2663 20.4264 16.2663 21.676C16.2663 23.4587 16.25 24.8916 16.25 25.3414C16.25 25.6913 16.4938 26.1078 17.1438 25.9745C22.4354 24.1429 25.9986 19.0553 26 13.3288C26 5.96465 20.1825 0 13 0Z" fill="white"/>
</svg>
