<svg width="26" height="26" viewBox="0 0 26 26" fill="none" xmlns="http://www.w3.org/2000/svg">
<path d="M13 9.1C10.8454 9.1 9.09999 10.846 9.09999 13C9.09999 15.1545 10.846 16.9 13 16.9C15.1545 16.9 16.9 15.154 16.9 13C16.9 10.8455 15.154 9.1 13 9.1ZM13 6.5C16.5885 6.5 19.5 9.40823 19.5 13C19.5 16.5886 16.5918 19.5 13 19.5C9.41138 19.5 6.49999 16.5918 6.49999 13C6.49999 9.41139 9.40822 6.5 13 6.5ZM21.45 6.17389C21.45 7.07104 20.721 7.79892 19.825 7.79892C18.9279 7.79892 18.2 7.06992 18.2 6.17389C18.2 5.27787 18.9289 4.55 19.825 4.55C20.7198 4.54887 21.45 5.27787 21.45 6.17389ZM13 2.6C9.78317 2.6 9.25885 2.60851 7.76267 2.67514C6.74331 2.72299 6.06001 2.86009 5.42513 3.10657C4.86093 3.32539 4.45394 3.58667 4.0203 4.02031C3.58499 4.45562 3.32417 4.86152 3.10624 5.42598C2.85919 6.06232 2.72213 6.74454 2.67514 7.76249C2.60786 9.19776 2.6 9.69936 2.6 13C2.6 16.2169 2.60851 16.7411 2.67512 18.2372C2.723 19.2561 2.86028 19.9404 3.10616 20.5738C3.32555 21.1388 3.58737 21.5467 4.01892 21.9783C4.45594 22.4147 4.86305 22.6764 5.42215 22.8922C6.06477 23.1406 6.74764 23.2779 7.76247 23.3249C9.19775 23.3921 9.69936 23.4 13 23.4C16.2169 23.4 16.7411 23.3914 18.2372 23.3249C19.2539 23.2771 19.9388 23.1395 20.5738 22.8938C21.1372 22.675 21.5465 22.4123 21.9783 21.9811C22.4154 21.5433 22.6766 21.1372 22.8926 20.5768C23.1404 19.9365 23.2779 19.2527 23.3249 18.2376C23.3921 16.8022 23.4 16.3006 23.4 13C23.4 9.78318 23.3914 9.25887 23.3249 7.76278C23.277 6.74578 23.1394 6.05994 22.8934 5.42513C22.6751 4.86249 22.4129 4.45425 21.9796 4.02031C21.5436 3.58429 21.1388 3.32401 20.5739 3.10625C19.9381 2.8594 19.2548 2.72215 18.2374 2.67515C16.8022 2.60786 16.3006 2.6 13 2.6ZM13 0C16.5316 0 16.9726 0.0129999 18.3593 0.0779999C19.7426 0.141921 20.6863 0.36075 21.515 0.6825C22.3718 1.01292 23.0955 1.45925 23.8181 2.18183C24.5396 2.90442 24.986 3.63025 25.3175 4.485C25.6381 5.31267 25.857 6.25733 25.922 7.64075C25.9838 9.02742 26 9.46833 26 13C26 16.5317 25.987 16.9725 25.922 18.3592C25.858 19.7427 25.6381 20.6862 25.3175 21.515C24.987 22.372 24.5396 23.0955 23.8181 23.8182C23.0955 24.5397 22.3686 24.986 21.515 25.3175C20.6863 25.6382 19.7426 25.857 18.3593 25.922C16.9726 25.9837 16.5316 26 13 26C9.46832 26 9.0274 25.987 7.64074 25.922C6.25732 25.858 5.31482 25.6382 4.485 25.3175C3.62915 24.987 2.90441 24.5397 2.18183 23.8182C1.45925 23.0955 1.014 22.3687 0.682499 21.515C0.36075 20.6862 0.143 19.7427 0.0780002 18.3592C0.0162502 16.9725 0 16.5317 0 13C0 9.46833 0.0130002 9.02742 0.0780002 7.64075C0.141908 6.25625 0.36075 5.31375 0.682499 4.485C1.01291 3.62917 1.45925 2.90442 2.18183 2.18183C2.90441 1.45925 3.63025 1.014 4.485 0.6825C5.31375 0.36075 6.25624 0.143 7.64074 0.0779999C9.0274 0.0162499 9.46832 0 13 0Z" fill="url(#paint0_linear_7_452)"/>
<defs>
<linearGradient id="paint0_linear_7_452" x1="26" y1="13" x2="0" y2="13" gradientUnits="userSpaceOnUse">
<stop stop-color="#FF0404"/>
<stop offset="1" stop-color="#E90DAC"/>
</linearGradient>
</defs>
</svg>
