<svg width="26" height="26" viewBox="0 0 26 26" fill="none" xmlns="http://www.w3.org/2000/svg">
<path d="M22.1509 22.1563H18.3007V16.1232C18.3007 14.6845 18.2715 12.8332 16.2944 12.8332C14.287 12.8332 13.9804 14.3987 13.9804 16.017V22.1563H10.1302V9.75H13.8287V11.441H13.8785C14.3953 10.466 15.652 9.43692 17.5294 9.43692C21.4305 9.43692 22.152 12.0045 22.152 15.3465L22.1509 22.1563ZM5.78174 8.05242C4.54241 8.05242 3.54683 7.04925 3.54683 5.81533C3.54683 4.5825 4.5435 3.58042 5.78174 3.58042C7.01674 3.58042 8.01774 4.5825 8.01774 5.81533C8.01774 7.04925 7.01566 8.05242 5.78174 8.05242ZM7.71224 22.1563H3.85125V9.75H7.71224V22.1563ZM24.077 0H1.91858C0.857999 0 0 0.8385 0 1.87308V24.127C0 25.1625 0.857999 26 1.91858 26H24.0738C25.1333 26 26 25.1625 26 24.127V1.87308C26 0.8385 25.1333 0 24.0738 0H24.077Z" fill="#3485FF"/>
</svg>
